<svg xmlns="http://www.w3.org/2000/svg" viewBox="0 0 23 26" fill="currentColor"><path fill-rule="evenodd" d="M20.04,8.68C19.24,8.68 18.58,9.34 18.58,10.14C18.58,10.14 18.58,15.99 18.58,15.99C18.58,16.80 19.24,17.45 20.04,17.45C20.84,17.45 21.50,16.80 21.50,15.99C21.50,15.99 21.50,10.14 21.50,10.14C21.50,9.34 20.84,8.68 20.04,8.68ZM2.49,8.68C1.69,8.68 1.03,9.34 1.03,10.14C1.03,10.14 1.03,15.99 1.03,15.99C1.03,16.80 1.69,17.45 2.49,17.45C3.30,17.45 3.95,16.80 3.95,15.99C3.95,15.99 3.95,10.14 3.95,10.14C3.95,9.34 3.30,8.68 2.49,8.68ZM4.69,18.19C4.69,19.40 5.67,20.38 6.88,20.38C6.88,20.38 7.61,20.38 7.61,20.38C7.61,20.38 7.61,23.30 7.61,23.30C7.61,24.11 8.27,24.77 9.07,24.77C9.88,24.77 10.53,24.11 10.53,23.30C10.53,23.30 10.53,20.38 10.53,20.38C10.53,20.38 12.00,20.38 12.00,20.38C12.00,20.38 12.00,23.30 12.00,23.30C12.00,24.11 12.65,24.77 13.46,24.77C14.26,24.77 14.92,24.11 14.92,23.30C14.92,23.30 14.92,20.38 14.92,20.38C14.92,20.38 15.65,20.38 15.65,20.38C16.86,20.38 17.85,19.40 17.85,18.19C17.85,18.19 17.85,10.14 17.85,10.14C17.85,10.14 4.69,10.14 4.69,10.14C4.69,10.14 4.69,18.19 4.69,18.19ZM13.98,3.41C13.98,3.41 14.90,1.64 14.90,1.64C14.95,1.55 14.91,1.44 14.82,1.39C14.73,1.34 14.62,1.38 14.58,1.47C14.58,1.47 13.64,3.27 13.64,3.27C12.90,2.99 12.10,2.83 11.27,2.83C10.43,2.83 9.63,2.99 8.89,3.27C8.89,3.27 7.96,1.47 7.96,1.47C7.91,1.38 7.80,1.34 7.71,1.39C7.62,1.44 7.58,1.55 7.63,1.64C7.63,1.64 8.56,3.41 8.56,3.41C6.49,4.35 4.99,6.33 4.73,8.68C4.73,8.68 17.81,8.68 17.81,8.68C17.55,6.33 16.05,4.35 13.98,3.41ZM8.34,7.55C7.76,7.55 7.28,7.07 7.28,6.49C7.28,5.90 7.76,5.43 8.34,5.43C8.93,5.43 9.40,5.90 9.40,6.49C9.40,7.07 8.93,7.55 8.34,7.55ZM14.19,7.55C13.61,7.55 13.13,7.07 13.13,6.49C13.13,5.90 13.61,5.43 14.19,5.43C14.78,5.43 15.25,5.90 15.25,6.49C15.25,7.07 14.78,7.55 14.19,7.55Z"/></svg>