<svg xmlns="http://www.w3.org/2000/svg" viewBox="0 0 23 27" fill="currentColor"><path fill-rule="evenodd" d="M18.85,14.34C18.82,11.37 21.26,9.95 21.37,9.88C20.00,7.87 17.86,7.60 17.09,7.56C15.27,7.38 13.54,8.64 12.61,8.64C11.69,8.64 10.26,7.59 8.75,7.62C6.77,7.65 4.94,8.77 3.91,10.55C1.85,14.13 3.39,19.44 5.40,22.34C6.38,23.76 7.55,25.36 9.09,25.30C10.57,25.24 11.13,24.34 12.92,24.34C14.71,24.34 15.22,25.30 16.79,25.27C18.38,25.24 19.39,23.82 20.37,22.40C21.49,20.75 21.96,19.15 21.99,19.07C21.95,19.05 18.88,17.88 18.85,14.34ZM15.90,5.64C16.72,4.65 17.27,3.28 17.12,1.91C15.94,1.95 14.52,2.69 13.67,3.68C12.91,4.55 12.25,5.95 12.43,7.30C13.74,7.40 15.08,6.63 15.90,5.64Z"/></svg>