<svg xmlns="http://www.w3.org/2000/svg" viewBox="0 0 70 70" fill="currentColor"><path fill-rule="evenodd" d="M1.89,34.89C1.89,34.89 14.60,30.74 14.60,30.74C14.60,30.74 35.10,40.98 35.10,40.98C35.10,40.98 56.63,30.48 56.63,30.48C56.63,30.48 68.30,34.89 68.30,34.89C68.30,34.89 35.10,51.49 35.10,51.49C35.10,51.49 1.89,34.89 1.89,34.89ZM1.89,18.28C1.89,18.28 35.10,1.68 35.10,1.68C35.10,1.68 68.30,18.28 68.30,18.28C68.30,18.28 35.10,34.89 35.10,34.89C35.10,34.89 1.89,18.28 1.89,18.28ZM35.10,57.58C35.10,57.58 56.63,47.08 56.63,47.08C56.63,47.08 68.30,51.49 68.30,51.49C68.30,51.49 35.10,68.09 35.10,68.09C35.10,68.09 1.89,51.49 1.89,51.49C1.89,51.49 14.60,47.34 14.60,47.34C14.60,47.34 35.10,57.58 35.10,57.58Z"/></svg>