<svg xmlns="http://www.w3.org/2000/svg" viewBox="0 0 47 69" fill="currentColor"><path fill-rule="evenodd" d="M39.76,67.09C39.76,67.09 7.31,67.09 7.31,67.09C3.96,67.09 1.23,64.33 1.23,60.95C1.23,60.95 1.23,7.77 1.23,7.77C1.23,4.38 3.96,1.63 7.31,1.63C7.31,1.63 39.76,1.63 39.76,1.63C43.12,1.63 45.85,4.38 45.85,7.77C45.85,7.77 45.85,60.95 45.85,60.95C45.85,64.33 43.12,67.09 39.76,67.09ZM41.79,7.77C41.79,6.64 40.88,5.72 39.76,5.72C39.76,5.72 7.31,5.72 7.31,5.72C6.19,5.72 5.28,6.64 5.28,7.77C5.28,7.77 5.28,60.95 5.28,60.95C5.28,62.08 6.19,63.00 7.31,63.00C7.31,63.00 39.76,63.00 39.76,63.00C40.88,63.00 41.79,62.08 41.79,60.95C41.79,60.95 41.79,7.77 41.79,7.77ZM9.34,9.81C9.34,9.81 37.74,9.81 37.74,9.81C37.74,9.81 37.74,54.82 37.74,54.82C37.74,54.82 9.34,54.82 9.34,54.82C9.34,54.82 9.34,9.81 9.34,9.81ZM23.54,56.86C24.65,56.86 25.57,57.78 25.57,58.91C25.57,60.03 24.65,60.95 23.54,60.95C22.42,60.95 21.51,60.03 21.51,58.91C21.51,57.78 22.42,56.86 23.54,56.86Z"/></svg>