<svg xmlns="http://www.w3.org/2000/svg" viewBox="0 0 70 66" fill="currentColor"><path fill-rule="evenodd" d="M63.95,1.57C63.95,1.57 5.84,1.57 5.84,1.57C3.56,1.57 1.69,3.45 1.69,5.75C1.69,5.75 1.69,47.50 1.69,47.50C1.69,49.79 3.56,51.67 5.84,51.67C5.84,51.67 18.29,51.67 18.29,51.67C18.29,51.67 18.29,64.20 18.29,64.20C18.29,64.20 35.41,51.67 35.41,51.67C35.41,51.67 63.95,51.67 63.95,51.67C66.23,51.67 68.10,49.79 68.10,47.50C68.10,47.50 68.10,5.75 68.10,5.75C68.10,3.45 66.23,1.57 63.95,1.57ZM59.80,43.32C59.80,43.32 9.99,43.32 9.99,43.32C9.99,43.32 9.99,9.92 9.99,9.92C9.99,9.92 59.80,9.92 59.80,9.92C59.80,9.92 59.80,43.32 59.80,43.32Z"/></svg>