<svg xmlns="http://www.w3.org/2000/svg" viewBox="0 0 70 70" fill="currentColor"><path fill-rule="evenodd" d="M59.88,55.64C59.88,55.64 59.88,68.09 59.88,68.09C59.88,68.09 47.43,55.64 47.43,55.64C47.43,55.64 26.68,55.64 26.68,55.64C22.53,55.64 18.38,51.49 18.38,47.34C18.38,47.34 18.38,44.90 18.38,44.90C18.38,44.90 24.25,39.04 24.25,39.04C24.25,39.04 43.28,39.04 43.28,39.04C49.68,39.04 55.73,32.98 55.73,26.58C55.73,26.58 55.73,22.43 55.73,22.43C55.73,22.43 59.88,22.43 59.88,22.43C64.03,22.43 68.18,26.58 68.18,30.73C68.18,30.73 68.18,47.34 68.18,47.34C68.18,51.49 64.03,55.64 59.88,55.64ZM43.28,34.89C43.28,34.89 22.53,34.89 22.53,34.89C22.53,34.89 10.08,47.34 10.08,47.34C10.08,47.34 10.08,34.89 10.08,34.89C5.93,34.89 1.78,30.73 1.78,26.58C1.78,26.58 1.78,9.98 1.78,9.98C1.78,5.83 5.93,1.68 10.08,1.68C10.08,1.68 43.28,1.68 43.28,1.68C47.43,1.68 51.58,5.83 51.58,9.98C51.58,9.98 51.58,26.58 51.58,26.58C51.58,30.73 47.43,34.89 43.28,34.89Z"/></svg>